<svg width="59" height="15" viewBox="0 0 59 15" fill="none" xmlns="http://www.w3.org/2000/svg">
<path d="M8.27844 5.07321C8.24083 4.60843 8.06527 4.25042 7.75177 3.99919C7.44454 3.74796 6.99624 3.62234 6.40686 3.62234C5.81749 3.62234 5.37546 3.72597 5.08077 3.93324C4.79235 4.13423 4.64814 4.41059 4.64814 4.76231C4.64814 5.0952 4.80176 5.36527 5.10898 5.57254C5.41621 5.77353 5.88959 5.93997 6.52913 6.07187L7.65772 6.33566C9.09354 6.64343 10.1563 7.14589 10.846 7.84307C11.542 8.53396 11.8962 9.41328 11.9087 10.481C11.9025 11.3666 11.6799 12.1235 11.241 12.7515C10.8021 13.3733 10.172 13.8476 9.35061 14.1742C8.52924 14.5008 7.54486 14.6641 6.39746 14.6641C4.57917 14.6578 3.1559 14.2495 2.12762 13.4393C1.09935 12.6228 0.578946 11.398 0.566406 9.765H3.9898C4.01488 10.3931 4.23119 10.8736 4.63874 11.2065C5.05256 11.5393 5.61999 11.7058 6.34103 11.7058C6.94295 11.7058 7.40692 11.5959 7.73296 11.376C8.06527 11.1499 8.23456 10.8516 8.24083 10.481C8.23456 10.1481 8.07154 9.87806 7.75177 9.67079C7.43827 9.45724 6.90533 9.26882 6.15293 9.10552L4.77981 8.80404C2.20286 8.23876 0.917523 6.96375 0.923793 4.979C0.917523 4.13109 1.14638 3.38053 1.61035 2.72732C2.07433 2.07411 2.72013 1.5685 3.54777 1.2105C4.3754 0.846207 5.31903 0.664062 6.37865 0.664062C7.45081 0.664062 8.38817 0.846207 9.19072 1.2105C9.99955 1.57478 10.6203 2.08981 11.0529 2.75558C11.4918 3.42135 11.7144 4.1939 11.7206 5.07321H8.27844Z" fill="black"/>
<path d="M18.8338 0.852488L22.0691 8.78519H22.2384L25.4737 0.852488H29.9317V14.4945H26.433V6.46756H26.3202L23.2165 14.4003H21.0722L17.9874 6.41103H17.8745V14.4945H14.3759V0.852488H18.8338Z" fill="black"/>
<path d="M32.775 14.4945V0.852488H37.9101C39.302 0.852488 40.509 1.1257 41.531 1.67214C42.553 2.21229 43.3399 2.9974 43.8916 4.02745C44.4434 5.05123 44.7193 6.26657 44.7193 7.67348C44.7193 9.08039 44.4434 10.2957 43.8916 11.3195C43.3462 12.3433 42.5624 13.1284 41.5404 13.6748C40.5247 14.2213 39.3271 14.4945 37.9477 14.4945H32.775ZM37.8161 11.442C38.5434 11.442 39.1484 11.3258 39.6312 11.0934C40.114 10.8547 40.4808 10.459 40.7316 9.90632C40.9824 9.35361 41.1078 8.60933 41.1078 7.67348C41.1078 6.73136 40.9793 5.98394 40.7222 5.43122C40.4714 4.87851 40.0983 4.48596 39.603 4.25356C39.1139 4.02117 38.4869 3.90498 37.722 3.90498H36.3489V11.442H37.8161Z" fill="black"/>
<path d="M47.4686 0.852488H53.2996C54.3154 0.852488 55.1775 0.993807 55.886 1.27644C56.5945 1.5528 57.1275 1.94849 57.4848 2.46352C57.8485 2.97855 58.0335 3.58465 58.0397 4.28183C58.0397 4.77801 57.93 5.23338 57.7106 5.64791C57.4911 6.05617 57.1839 6.40161 56.7889 6.68425C56.3939 6.96061 55.9393 7.15217 55.4252 7.25895V7.39085C56.002 7.40969 56.5287 7.55729 57.0052 7.83365C57.488 8.10372 57.8673 8.48371 58.1432 8.97362C58.4253 9.45724 58.5664 10.0162 58.5664 10.6506C58.5664 11.3917 58.372 12.0544 57.9833 12.6385C57.6008 13.2163 57.0491 13.6717 56.328 14.0046C55.607 14.3312 54.7605 14.4945 53.7887 14.4945H47.4686V0.852488ZM52.867 11.6116C53.5066 11.6179 53.9862 11.5017 54.306 11.263C54.6257 11.018 54.7856 10.6632 54.7856 10.1984C54.7856 9.70848 54.6195 9.32535 54.2872 9.04899C53.9549 8.77263 53.5003 8.63445 52.9235 8.63445H51.0425V11.6116H52.867ZM52.6413 6.39219C53.1554 6.39219 53.5693 6.27286 53.8828 6.03418C54.1963 5.79551 54.353 5.46263 54.353 5.03553C54.353 4.60843 54.1994 4.27555 53.8922 4.03688C53.5912 3.7982 53.1931 3.67887 52.6977 3.67887H51.0425V6.39219H52.6413Z" fill="black"/>
</svg>
