<svg width="20" height="20" viewBox="0 0 20 20" fill="none" xmlns="http://www.w3.org/2000/svg">
    <path fill-rule="evenodd" clip-rule="evenodd"
        d="M13.2556 4.75958C15.6017 7.10568 15.6017 10.9095 13.2556 13.2556C10.9095 15.6017 7.10568 15.6017 4.75958 13.2556C2.41347 10.9095 2.41347 7.10568 4.75958 4.75958C7.10568 2.41347 10.9095 2.41347 13.2556 4.75958ZM16.2223 14.4025C18.8674 10.8743 18.5856 5.84701 15.3769 2.63826C11.8592 -0.87942 6.15594 -0.87942 2.63826 2.63826C-0.87942 6.15594 -0.87942 11.8592 2.63826 15.3769C5.847 18.5856 10.8743 18.8674 14.4025 16.2223L17.8032 19.6231C18.3058 20.1256 19.1205 20.1256 19.623 19.6231C20.1256 19.1205 20.1256 18.3058 19.623 17.8032L16.2223 14.4025Z"
        fill="white" />
</svg>